<?xml version="1.0" encoding="UTF-8"?>
<!DOCTYPE svg PUBLIC "-//W3C//DTD SVG 1.1//EN" "http://www.w3.org/Graphics/SVG/1.1/DTD/svg11.dtd">
<!-- Creator: CorelDRAW 2019 (64 Bit) -->
<svg xmlns="http://www.w3.org/2000/svg" xml:space="preserve" width="210mm" height="297mm" version="1.1" style="shape-rendering:geometricPrecision; text-rendering:geometricPrecision; image-rendering:optimizeQuality; fill-rule:evenodd; clip-rule:evenodd"
viewBox="0 0 21000 29700"
 xmlns:xlink="http://www.w3.org/1999/xlink"
 xmlns:xodm="http://www.corel.com/coreldraw/odm/2003">
 <defs>
  <style type="text/css">
   <![CDATA[
    .fil0 {fill:#FD9902}
   ]]>
  </style>
 </defs>
 <g id="Camada_x0020_1">
  <metadata id="CorelCorpID_0Corel-Layer"/>
  <path class="fil0" d="M10285.89 14712.83c35.19,0 63.71,-28.52 63.71,-63.71 0,-35.18 -28.52,-63.7 -63.71,-63.7 -35.18,0 -63.7,28.52 -63.7,63.7 0,35.19 28.52,63.71 63.7,63.71z"/>
  <path class="fil0" d="M10409.76 14761.11l0 353.44 109.74 0 0 -174.78c0,-46.12 8.68,-90.79 65.86,-90.79 56.4,0 57.1,52.73 57.1,93.7l0 171.9 109.8 0 0 -193.83c0,-95.21 -20.5,-168.38 -131.78,-168.38 -53.43,0 -89.25,29.32 -103.89,57.07l-1.49 0 0 -48.33 -105.34 0zm-178.84 0l109.92 0 0 353.44 -109.92 0 0 -353.44z"/>
 </g>
</svg>
